<svg width="92" height="26" viewBox="0 0 92 26" fill="none" xmlns="http://www.w3.org/2000/svg">
<g clip-path="url(#clip0_3_142)">
<path d="M35.981 2.52041C36.6896 2.52041 37.2641 1.97401 37.2641 1.3C37.2641 0.625985 36.6896 0.0795898 35.981 0.0795898C35.2724 0.0795898 34.6979 0.625985 34.6979 1.3C34.6979 1.97401 35.2724 2.52041 35.981 2.52041Z" fill="#E7302A"/>
<path d="M37.892 4.51023C41.632 5.09391 45.7543 8.25105 46.3276 13.2388C46.3549 13.5572 46.6552 13.8225 47.0101 13.8225C47.4196 13.8225 47.7199 13.4776 47.6926 13.1062C47.2831 9.86942 45.727 7.24289 42.9151 5.25309C39.3115 2.70615 34.5068 2.41431 30.5756 4.35105C26.6445 6.28778 24.6243 9.84289 24.2967 13.1062C24.2694 13.4776 24.5697 13.8225 24.9792 13.8225H44.6623C45.0718 13.8225 45.3721 13.5041 45.3448 13.1062C45.1537 11.249 44.5258 9.52452 43.27 8.01227C41.8231 6.34085 40.0213 5.22656 37.892 4.51023Z" fill="#E7302A"/>
<path d="M48.5935 15.7857H23.8326" stroke="#E7302A" stroke-width="0.700297" stroke-miterlimit="10" stroke-linecap="round"/>
<path d="M40.2398 17.4306C39.53 19.102 37.892 20.5347 35.981 20.5347C34.07 20.5347 32.4321 19.102 31.7223 17.4306H24.8973C25.7982 22.4714 30.4119 25.9469 35.981 25.9469C41.5502 25.9469 46.1365 22.4979 47.0647 17.4306H40.2398Z" fill="#E7302A"/>
<path d="M0.218384 24.4081V6.04895H7.58931L13.2403 15.2285V6.04895H20.0653V24.4081H13.5952L7.48011 15.2285V24.4081H0.218384Z" fill="#E7302A"/>
<path d="M50.0403 6.04895H56.6196L60.6326 18.7306L64.9733 6.04895H71.6617L64.5092 24.4081H56.5104L50.0403 6.04895Z" fill="#E7302A"/>
<path d="M84.5744 6.04895H77.613L70.3786 24.3285L76.9851 24.302L77.8587 21.8081H84.0284L85.0931 24.3816H91.8089L84.5744 6.04895ZM79.1964 17.0326L80.7525 12.2041L82.6362 17.0326H79.1964Z" fill="#E7302A"/>
</g>
<defs>
<clipPath id="clip0_3_142">
<rect width="92" height="26" fill="white"/>
</clipPath>
</defs>
</svg>
